<svg fill="none" height="24" width="24" xmlns="http://www.w3.org/2000/svg"><path d="M12 2.1c4 0 6.9 3.3 6.9 7.5v1.6c0 .3.2.6.7 1.1l.3.3c1 1 1.5 1.7 1.5 2.7 0 .5 0 .8-.3 1.2-.4 1-1.4 1.4-2.8 1.4h-2c-.6 2.3-2 3.6-4.3 3.6-2.2 0-3.8-1.3-4.4-3.7v.1H5.7c-1.5 0-2.4-.5-2.9-1.4-.2-.4-.2-.7-.2-1.2 0-1 .4-1.6 1.5-2.7l.3-.3c.5-.5.7-.8.7-1V9.5C5.1 5.4 8 2.1 12 2.1zm2.5 15.8h-5c.5 1.2 1.3 1.8 2.5 1.8s2-.6 2.5-1.8zM12 3.9c-3 0-5.1 2.4-5.1 5.7v1.6c0 .9-.4 1.5-1.2 2.4l-.3.2c-.8.8-1 1.2-1 1.5v.4c.2.2.5.4 1.3.4h12.6c.8 0 1.1-.2 1.2-.4l.1-.4c0-.3-.2-.7-1-1.5a41 41 0 01-.3-.2c-.8-1-1.2-1.5-1.2-2.4V9.6C17.1 6.3 15 4 12 4z" fill="#6f7985" /></svg>
